{
	"asset":{
		"generator":"Khronos glTF Blender I/O v4.0.44",
		"version":"2.0"
	},
	"extensionsUsed":[
		"KHR_materials_clearcoat",
		"KHR_materials_sheen",
		"KHR_texture_transform",
		"KHR_materials_transmission"
	],
	"extensionsRequired":[
		"KHR_texture_transform"
	],
	"scene":0,
	"scenes":[
		{
			"name":"Scene",
			"nodes":[
				0,
				1,
				2
			]
		}
	],
	"nodes":[
		{
			"mesh":0,
			"name":"ToyCar",
			"scale":[
				2,
				2,
				2
			]
		},
		{
			"mesh":1,
			"name":"Fabric",
			"scale":[
				2,
				2,
				2
			]
		},
		{
			"mesh":2,
			"name":"Glass",
			"scale":[
				2,
				2,
				2
			]
		}
	],
	"materials":[
		{
			"doubleSided":true,
			"emissiveFactor":[
				1,
				1,
				1
			],
			"emissiveTexture":{
				"index":0
			},
			"extensions":{
				"KHR_materials_clearcoat":{
					"clearcoatFactor":1,
					"clearcoatRoughnessFactor":0,
					"clearcoatTexture":{
						"index":1
					}
				}
			},
			"name":"ToyCar",
			"normalTexture":{
				"index":2
			},
			"occlusionTexture":{
				"index":3
			},
			"pbrMetallicRoughness":{
				"baseColorTexture":{
					"index":4
				},
				"metallicRoughnessTexture":{
					"index":3
				}
			}
		},
		{
			"doubleSided":true,
			"extensions":{
				"KHR_materials_sheen":{
					"sheenColorFactor":[
						1.0,
						0.0,
						0.0
					],
					"sheenRoughnessFactor":0.5
				}
			},
			"name":"Fabric",
			"normalTexture":{
				"extensions":{
					"KHR_texture_transform":{
						"scale":[
							3,
							3
						]
					}
				},
				"index":5
			},
			"occlusionTexture":{
				"index":6
			},
			"pbrMetallicRoughness":{
				"baseColorFactor":[
					0.15000000596046448,
					0.15000000596046448,
					0.15000000596046448,
					1
				],
				"baseColorTexture":{
					"extensions":{
						"KHR_texture_transform":{
							"scale":[
								3,
								3
							]
						}
					},
					"index":7
				},
				"metallicFactor":0
			}
		},
		{
			"extensions":{
				"KHR_materials_transmission":{
					"transmissionFactor":1
				}
			},
			"name":"Glass",
			"pbrMetallicRoughness":{
				"baseColorFactor":[
					0.30000001192092896,
					0.800000011920929,
					0.30000001192092896,
					1
				],
				"metallicFactor":0,
				"roughnessFactor":0
			}
		}
	],
	"meshes":[
		{
			"name":"ToyCar",
			"primitives":[
				{
					"attributes":{
						"POSITION":0,
						"NORMAL":1,
						"TEXCOORD_0":2,
						"TANGENT":3
					},
					"indices":4,
					"material":0
				}
			]
		},
		{
			"name":"Fabric",
			"primitives":[
				{
					"attributes":{
						"POSITION":5,
						"NORMAL":6,
						"TEXCOORD_0":7,
						"TANGENT":8
					},
					"indices":9,
					"material":1
				}
			]
		},
		{
			"name":"Glass",
			"primitives":[
				{
					"attributes":{
						"POSITION":10,
						"NORMAL":11,
						"TEXCOORD_0":12,
						"TANGENT":13
					},
					"indices":14,
					"material":2
				}
			]
		}
	],
	"textures":[
		{
			"sampler":0,
			"source":0
		},
		{
			"sampler":0,
			"source":1
		},
		{
			"sampler":0,
			"source":2
		},
		{
			"sampler":0,
			"source":3
		},
		{
			"sampler":0,
			"source":4
		},
		{
			"sampler":0,
			"source":5
		},
		{
			"sampler":0,
			"source":6
		},
		{
			"sampler":0,
			"source":7
		}
	],
	"images":[
		{
			"mimeType":"image/png",
			"name":"ToyCar_emissive",
			"uri":"ToyCar_emissive.png"
		},
		{
			"mimeType":"image/png",
			"name":"ToyCar_clearcoat",
			"uri":"ToyCar_clearcoat.png"
		},
		{
			"mimeType":"image/png",
			"name":"ToyCar_normal",
			"uri":"ToyCar_normal.png"
		},
		{
			"mimeType":"image/png",
			"name":"ToyCar_occlusion_roughness_metallic",
			"uri":"ToyCar_occlusion_roughness_metallic.png"
		},
		{
			"mimeType":"image/png",
			"name":"ToyCar_basecolor",
			"uri":"ToyCar_basecolor.png"
		},
		{
			"mimeType":"image/png",
			"name":"Fabric_normal",
			"uri":"Fabric_normal.png"
		},
		{
			"mimeType":"image/png",
			"name":"Fabric_occlusion",
			"uri":"Fabric_occlusion.png"
		},
		{
			"mimeType":"image/png",
			"name":"Fabric_baseColor",
			"uri":"Fabric_baseColor.png"
		}
	],
	"accessors":[
		{
			"bufferView":0,
			"componentType":5126,
			"count":67767,
			"max":[
				0.04676881432533264,
				0.06308311223983765,
				0.0948723554611206
			],
			"min":[
				-0.04676881805062294,
				0.004962110426276922,
				-0.09702473878860474
			],
			"type":"VEC3"
		},
		{
			"bufferView":1,
			"componentType":5126,
			"count":67767,
			"type":"VEC3"
		},
		{
			"bufferView":2,
			"componentType":5126,
			"count":67767,
			"type":"VEC2"
		},
		{
			"bufferView":3,
			"componentType":5126,
			"count":67767,
			"type":"VEC4"
		},
		{
			"bufferView":4,
			"componentType":5125,
			"count":266511,
			"type":"SCALAR"
		},
		{
			"bufferView":5,
			"componentType":5126,
			"count":8965,
			"max":[
				0.19223912060260773,
				0.005063059739768505,
				0.18490567803382874
			],
			"min":[
				-0.1749754399061203,
				-0.08103134483098984,
				-0.1849057376384735
			],
			"type":"VEC3"
		},
		{
			"bufferView":6,
			"componentType":5126,
			"count":8965,
			"type":"VEC3"
		},
		{
			"bufferView":7,
			"componentType":5126,
			"count":8965,
			"type":"VEC2"
		},
		{
			"bufferView":8,
			"componentType":5126,
			"count":8965,
			"type":"VEC4"
		},
		{
			"bufferView":9,
			"componentType":5123,
			"count":52815,
			"type":"SCALAR"
		},
		{
			"bufferView":10,
			"componentType":5126,
			"count":1523,
			"max":[
				0.028705518692731857,
				0.060345910489559174,
				0.04556291177868843
			],
			"min":[
				-0.028705522418022156,
				0.044799041002988815,
				-0.04659012705087662
			],
			"type":"VEC3"
		},
		{
			"bufferView":11,
			"componentType":5126,
			"count":1523,
			"type":"VEC3"
		},
		{
			"bufferView":12,
			"componentType":5126,
			"count":1523,
			"type":"VEC2"
		},
		{
			"bufferView":13,
			"componentType":5126,
			"count":1523,
			"type":"VEC4"
		},
		{
			"bufferView":14,
			"componentType":5123,
			"count":7482,
			"type":"SCALAR"
		}
	],
	"bufferViews":[
		{
			"buffer":0,
			"byteLength":813204,
			"byteOffset":0,
			"target":34962
		},
		{
			"buffer":0,
			"byteLength":813204,
			"byteOffset":813204,
			"target":34962
		},
		{
			"buffer":0,
			"byteLength":542136,
			"byteOffset":1626408,
			"target":34962
		},
		{
			"buffer":0,
			"byteLength":1084272,
			"byteOffset":2168544,
			"target":34962
		},
		{
			"buffer":0,
			"byteLength":1066044,
			"byteOffset":3252816,
			"target":34963
		},
		{
			"buffer":0,
			"byteLength":107580,
			"byteOffset":4318860,
			"target":34962
		},
		{
			"buffer":0,
			"byteLength":107580,
			"byteOffset":4426440,
			"target":34962
		},
		{
			"buffer":0,
			"byteLength":71720,
			"byteOffset":4534020,
			"target":34962
		},
		{
			"buffer":0,
			"byteLength":143440,
			"byteOffset":4605740,
			"target":34962
		},
		{
			"buffer":0,
			"byteLength":105630,
			"byteOffset":4749180,
			"target":34963
		},
		{
			"buffer":0,
			"byteLength":18276,
			"byteOffset":4854812,
			"target":34962
		},
		{
			"buffer":0,
			"byteLength":18276,
			"byteOffset":4873088,
			"target":34962
		},
		{
			"buffer":0,
			"byteLength":12184,
			"byteOffset":4891364,
			"target":34962
		},
		{
			"buffer":0,
			"byteLength":24368,
			"byteOffset":4903548,
			"target":34962
		},
		{
			"buffer":0,
			"byteLength":14964,
			"byteOffset":4927916,
			"target":34963
		}
	],
	"samplers":[
		{
			"magFilter":9729,
			"minFilter":9987
		}
	],
	"buffers":[
		{
			"byteLength":4942880,
			"uri":"ToyCar.bin"
		}
	]
}
